<svg xmlns="http://www.w3.org/2000/svg" viewBox="0 0 64 64" role="img" aria-labelledby="title">
  <title>Tabelog</title>
  <g fill="none" stroke="#f58d0a" stroke-linecap="round" stroke-linejoin="round" stroke-width="3.4">
    <path d="M8 42 30 26"/>
    <path d="M12 47 34 31"/>
    <path d="M25 23c2.2-3.4 5.3-5.7 8.7-6.7 3.8-1.1 7.3-.2 10.1 2.5l4.8-3.4"/>
    <path d="M31 26c2.9 2.5 5.4 3.7 7.5 3.5 1.8-.2 3.1-1.2 4.8-3.1"/>
    <path d="M28 27c-3.6 2.3-5.8 5.4-6.4 9.2-.6 3.5.3 6.9 2.6 10.4"/>
    <path d="M27.5 32.2c-2.1 1.9-3.2 4.1-3.4 6.8-.2 2.6.6 5 2.6 7.3"/>
    <path d="M30.8 29.7c2.6 3.1 5.7 5 9.4 5.8 4 .9 8.1.3 12.5-1.8"/>
    <path d="M49.5 42.3c.5 2.9.1 5.8-1.1 8.7l8.9 3 3-8.8-10.8-2.9Z"/>
  </g>
</svg>
