<svg xmlns="http://www.w3.org/2000/svg" viewBox="0 0 64 64" role="img" aria-labelledby="title">
  <title>Google</title>
  <path d="M32 9a23 23 0 0 1 16.26 6.73l-6.6 6.35A13.76 13.76 0 0 0 32 18.2c-5.6 0-10.62 3.74-12.36 9.03l-7.94-6.14A22.95 22.95 0 0 1 32 9Z" fill="#ea4335"/>
  <path d="M19.64 27.23A13.1 13.1 0 0 0 19 31.2c0 1.36.22 2.68.64 3.97l-7.94 6.14A22.98 22.98 0 0 1 9 31.2c0-3.58.82-6.96 2.3-9.97l8.34 5.99Z" fill="#fbbc04"/>
  <path d="M32 54a22.95 22.95 0 0 1-20.3-12.69l7.94-6.14c1.74 5.29 6.76 9.03 12.36 9.03 3.22 0 6.09-.92 8.33-2.48l6.97 5.39A22.82 22.82 0 0 1 32 54Z" fill="#34a853"/>
  <path d="M55 31.2c0 7.01-2.34 12.9-6.7 16.9l-6.97-5.39c2.04-1.42 3.53-3.56 4.17-6.11H32v-9h22.57c.28 1.19.43 2.4.43 3.6Z" fill="#4285f4"/>
</svg>
